<?xml version="1.0" encoding="utf-8"?>
<svg xmlns="http://www.w3.org/2000/svg" viewBox="0 0 48 48" width="480" height="480">
  <path fill="#bbdefb" d="M9,40V8c0-1.1,0.9-2,2-2h26c1.1,0,2,0.9,2,2v32c0,1.1-0.9,2-2,2H11C9.9,42,9,41.1,9,40z" />
  <path fill="#9bcffa" d="M16 11H39V13H16zM16 17H39V19H16zM16 23H39V25H16zM16 29H39V31H16zM16 35H39V37H16z" />
  <path fill="#1565c0" d="M12 34A2 2 0 1 0 12 38 2 2 0 1 0 12 34zM12 26A2 2 0 1 0 12 30 2 2 0 1 0 12 26zM12 18A2 2 0 1 0 12 22 2 2 0 1 0 12 18zM12 10A2 2 0 1 0 12 14 2 2 0 1 0 12 10z" />
  <path fill="#b0bec5" d="M12 37H8c-.6 0-1-.4-1-1l0 0c0-.6.4-1 1-1h4c.6 0 1 .4 1 1l0 0C13 36.6 12.6 37 12 37zM12 29H8c-.6 0-1-.4-1-1l0 0c0-.6.4-1 1-1h4c.6 0 1 .4 1 1l0 0C13 28.6 12.6 29 12 29zM12 21H8c-.6 0-1-.4-1-1l0 0c0-.6.4-1 1-1h4c.6 0 1 .4 1 1l0 0C13 20.6 12.6 21 12 21zM12 13H8c-.6 0-1-.4-1-1l0 0c0-.6.4-1 1-1h4c.6 0 1 .4 1 1l0 0C13 12.6 12.6 13 12 13z" />
  <path fill="#ff3d00" d="M48,38c0,5.5-4.5,10-10,10s-10-4.5-10-10s4.5-10,10-10S48,32.5,48,38" />
  <path fill="#fff" d="M43.3 34.8L41.2 32.7 38 35.9 34.8 32.7 32.7 34.8 35.9 38 32.7 41.2 34.8 43.3 38 40.1 41.2 43.3 43.3 41.2 40.1 38z" />
  <path fill="#ffc107" d="M46.8,20H27.2c-0.4,0-0.8-0.2-1.1-0.6c-0.2-0.4-0.2-0.9,0-1.3l9.8-17.5C36.2,0.2,36.6,0,37,0s0.8,0.2,1.1,0.6l9.8,17.5c0.2,0.4,0.2,0.9,0,1.3C47.6,19.8,47.2,20,46.8,20z" />
  <path fill="#5d4037" d="M36,17c0-0.1,0-0.3,0.1-0.4c0-0.1,0.1-0.2,0.2-0.3c0.1-0.1,0.2-0.2,0.3-0.2c0.1,0,0.3-0.1,0.4-0.1c0.2,0,0.3,0,0.4,0.1c0.1,0,0.2,0.1,0.3,0.2c0.1,0.1,0.2,0.2,0.2,0.3c0,0.1,0.1,0.3,0.1,0.4s0,0.3-0.1,0.4c0,0.1-0.1,0.2-0.2,0.3c-0.1,0.1-0.2,0.2-0.3,0.2C37.3,18,37.2,18,37,18s-0.3,0-0.4-0.1c-0.1-0.1-0.2-0.1-0.3-0.2c-0.1-0.1-0.2-0.2-0.2-0.3C36,17.3,36,17.1,36,17 M36,15h2V7h-2V15z" />
</svg>