<?xml version="1.0" encoding="utf-8"?>
<svg xmlns="http://www.w3.org/2000/svg" viewBox="0 0 48 48" width="480" height="480">
  <rect width="15.556" height="14.371" x="28.641" y="4.395" fill="#90a4ae" transform="rotate(45.001 36.42 11.58)" />
  <path fill="none" d="M41,13l-2,2l-2-2l2-2L41,13z M35,11l-2-2l2-2l2,2L35,11z" />
  <circle cx="13.5" cy="34.5" r="2.5" fill="none" />
  <rect width="2.828" height="2.828" x="37.586" y="11.586" fill="#455a64" transform="rotate(-45.001 39 13)" />
  <path fill="#455a64" d="M24.313,8C23.5,8.019,22.729,8.301,22.15,8.879L4.516,26.516c-4.679,4.679-4.679,12.292,0,16.971c2.34,2.34,5.411,3.508,8.484,3.508s6.145-1.168,8.484-3.508L39.121,25.85c1.121-1.121,1.156-2.908,0.129-4.086L26.286,8.789C25.744,8.296,25.054,8.012,24.313,8z M13.5,37c-1.381,0-2.5-1.119-2.5-2.5s1.119-2.5,2.5-2.5c1.381,0,2.5,1.119,2.5,2.5S14.881,37,13.5,37z" />
  <rect width="2.828" height="2.828" x="33.586" y="7.586" fill="#455a64" transform="rotate(-45.001 35 9)" />
  <circle cx="12.5" cy="35.5" r="6.5" fill="#78909c" />
</svg>